<svg xmlns="http://www.w3.org/2000/svg" viewBox="0 0 511.999 511.999" xml:space="preserve"><ellipse style="fill:#ffe7cc" cx="157.277" cy="266.209" rx="34.212" ry="34.095"/><ellipse style="fill:#ffe7cc" cx="354.721" cy="266.209" rx="34.212" ry="34.095"/><path style="fill:gray" d="M81.963 504.163c-6.407 0-11.603-5.176-11.603-11.563v-40.47c0-36.98 30.188-67.065 67.295-67.065h236.689c37.106 0 67.295 30.085 67.295 67.065v40.47c0 6.386-5.195 11.563-11.603 11.563H81.963z"/><path style="opacity:.1;enable-background:new" d="M113.893 492.6v-40.47c0-36.98 30.188-67.065 67.295-67.065h-43.533c-37.106 0-67.295 30.085-67.295 67.065v40.47c0 6.386 5.195 11.563 11.603 11.563h43.533c-6.408 0-11.603-5.176-11.603-11.563z"/><circle style="fill:#ef645e" cx="255.999" cy="445.127" r="13.061"/><path style="fill:#ef645e" d="M269.06 496.327c0-7.214-5.848-13.061-13.061-13.061s-13.061 5.847-13.061 13.061c0 2.945.986 5.652 2.63 7.837h20.862a12.99 12.99 0 0 0 2.63-7.837zM346.096 369.122c0 13.411-10.909 24.282-24.366 24.282H190.268c-13.457 0-24.366-10.872-24.366-24.282 0-13.411 10.91-24.283 24.366-24.283H321.73c13.458-.001 24.366 10.871 24.366 24.283z"/><path style="opacity:.1;enable-background:new" d="M187.608 369.122c0-13.411 10.909-24.283 24.366-24.283h-21.707c-13.457 0-24.366 10.872-24.366 24.283s10.91 24.282 24.366 24.282h21.707c-13.457 0-24.366-10.872-24.366-24.282z"/><path style="fill:#ef645e" d="M302.348 385.859c16.238 16.181 23.198 35.482 15.546 43.108-7.653 7.626-27.019.691-43.257-15.493-16.237-16.182-23.198-35.482-15.545-43.109 7.652-7.626 27.018-.688 43.256 15.494z"/><path style="fill:#ef645e" d="M237.362 413.474c-16.239 16.182-35.605 23.118-43.257 15.493-7.653-7.626-.693-26.927 15.545-43.108 16.238-16.182 35.604-23.119 43.257-15.494 7.652 7.628.692 26.927-15.545 43.109z"/><path style="fill:#ffe7cc" d="M366.496 276.641c0 53.02-55.029 96.001-108.229 96.001h-4.534c-53.202 0-108.229-42.981-108.229-96.001v-65.507c0-53.02 43.128-96.001 96.33-96.001h28.332c53.202 0 96.33 42.981 96.33 96.001v65.507z"/><path style="fill:#c69c6d" d="M366.496 251.298v-40.165c0-53.02-43.128-96.001-96.33-96.001H259.66v40.164c0 53.02 43.128 96.001 96.33 96.001h10.506v.001z"/><path style="opacity:.1;enable-background:new" d="M178.157 276.641v-65.507c0-52.3 41.965-94.828 94.169-95.974a97.088 97.088 0 0 0-2.161-.027h-28.332c-53.202 0-96.33 42.981-96.33 96.001v65.507c0 53.02 55.027 96.001 108.229 96.001h4.534c4.685 0 9.385-.341 14.061-.984-48.407-6.671-94.17-46.667-94.17-95.017z"/><path style="fill:#c69c6d" d="M321.828 155.297v-25.201c-14.929-9.473-32.652-14.963-51.662-14.963h-28.332c-53.202 0-96.33 42.981-96.33 96.001v25.201c14.929 9.473 32.652 14.963 51.662 14.963h28.332c53.201 0 96.33-42.981 96.33-96.001z"/><path style="fill:gray" d="M399.928 81.249c0-24.326-19.788-44.048-44.199-44.048a44.194 44.194 0 0 0-17.306 3.507c-4.963-18.915-22.225-32.872-42.759-32.872-16.965 0-31.691 9.532-39.099 23.509-7.408-13.977-22.133-23.508-39.098-23.508-20.7 0-38.071 14.184-42.874 33.331a44.148 44.148 0 0 0-18.323-3.965c-24.41 0-44.199 19.721-44.199 44.048 0 20.625 14.227 37.934 33.433 42.726v88.742h220.993v-88.742c19.204-4.794 33.431-22.102 33.431-42.728z"/><path style="fill:#ef645e" d="M145.501 184.424h220.996v28.296H145.501z"/><path style="opacity:.1;enable-background:new" d="M144.729 81.249c0-18.575 11.543-34.453 27.866-40.928a44.133 44.133 0 0 0-16.325-3.119c-24.41 0-44.199 19.721-44.199 44.048 0 20.625 14.227 37.934 33.433 42.726v88.742h32.658v-88.742c-19.207-4.793-33.433-22.101-33.433-42.727z"/><path style="opacity:.1;enable-background:new" d="M145.501 184.424h32.653v28.296h-32.653z"/><path d="M209.533 299.786a7.837 7.837 0 0 0 7.837-7.837V281.6a7.837 7.837 0 0 0-15.674 0v10.35a7.837 7.837 0 0 0 7.837 7.836zM302.465 299.786a7.837 7.837 0 0 0 7.837-7.837V281.6a7.837 7.837 0 0 0-15.674 0v10.35a7.836 7.836 0 0 0 7.837 7.836zM255.999 337.455c.001 0 0 0 0 0 8.891 0 17.251-3.463 23.537-9.75a7.837 7.837 0 0 0-11.083-11.082 17.498 17.498 0 0 1-12.454 5.159 17.498 17.498 0 0 1-12.454-5.159 7.835 7.835 0 0 0-11.082 0 7.835 7.835 0 0 0 0 11.082c6.286 6.288 14.645 9.75 23.536 9.75zM235.101 445.127c0 11.523 9.375 20.898 20.898 20.898s20.898-9.375 20.898-20.898-9.375-20.898-20.898-20.898-20.898 9.374-20.898 20.898zm26.122 0a5.23 5.23 0 0 1-5.224 5.224 5.23 5.23 0 0 1-5.224-5.224 5.23 5.23 0 0 1 5.224-5.225 5.23 5.23 0 0 1 5.224 5.225z"/><path d="M441.638 473.861a7.837 7.837 0 0 0-7.837 7.837V492.6c0 2.054-1.69 3.726-3.766 3.726H300.407v-57.712c3.073.834 6.033 1.287 8.796 1.287 5.77 0 10.687-1.861 14.223-5.383 3.541-3.53 5.414-8.444 5.414-14.212 0-5.758-1.928-12.362-5.396-19.112 7.638-.401 14.574-3.475 19.897-8.292h31.003c32.785 0 59.458 26.57 59.458 59.228a7.837 7.837 0 0 0 15.674 0c0-41.301-33.703-74.901-75.131-74.901h-21.456a31.983 31.983 0 0 0 1.046-8.107c0-9.483-4.155-18.006-10.73-23.888 12.215-11.802 21.064-25.317 26.136-39.718 16.002-5.932 27.434-21.309 27.434-39.306 0-16.063-9.107-30.037-22.441-37.074v-99.418c19.961-7.583 33.433-26.714 33.433-48.469 0-28.609-23.343-51.884-52.036-51.884-4.247 0-8.42.503-12.476 1.502C335.037 12.35 316.496 0 295.664 0c-15.199 0-29.346 6.55-39.099 17.641C246.813 6.55 232.666 0 217.467 0c-21.002 0-39.566 12.447-47.708 31.132a51.907 51.907 0 0 0-13.49-1.766c-28.693 0-52.036 23.275-52.036 51.884 0 21.755 13.472 40.886 33.433 48.469v15.524a7.837 7.837 0 0 0 15.674 0v-13.43h18.021a7.837 7.837 0 0 0 0-15.674h-24.818c-15.726-4.329-26.635-18.545-26.635-34.889 0-19.967 16.312-36.211 36.362-36.211 3.233 0 6.401.42 9.471 1.248-.2 1.853-.308 3.72-.308 5.598a7.837 7.837 0 0 0 15.674 0c0-3.074.4-6.104 1.159-9.044h-.006c4.129-16.007 18.57-27.167 35.209-27.167 13.522 0 25.851 7.411 32.173 19.342a7.837 7.837 0 0 0 13.848 0c6.325-11.931 18.654-19.342 32.176-19.342 16.538 0 31.003 11.114 35.18 27.025l.038.142a36.075 36.075 0 0 1 1.145 9.044 7.837 7.837 0 0 0 15.674 0c0-1.976-.122-3.933-.342-5.873a36.57 36.57 0 0 1 8.371-.973c20.049 0 36.362 16.244 36.362 36.211 0 16.344-10.91 30.56-26.635 34.889h-42.584a7.837 7.837 0 0 0 0 15.674h35.787v44.776h-50.938v-17.016a7.837 7.837 0 0 0-15.674 0v17.016h-28.212v-17.016a7.837 7.837 0 0 0-15.674 0v17.016h-28.211v-17.016a7.837 7.837 0 0 0-15.674 0v17.016H153.34v-3.135a7.837 7.837 0 0 0-15.674 0V229.135c-13.333 7.037-22.441 21.012-22.441 37.074 0 17.998 11.432 33.374 27.434 39.306 5.072 14.401 13.921 27.914 26.136 39.718-6.576 5.883-10.73 14.405-10.73 23.888 0 2.8.368 5.516 1.046 8.107h-21.456c-41.427 0-75.131 33.601-75.131 74.901v40.47c0 10.697 8.721 19.4 19.439 19.4h348.072c10.719 0 19.439-8.703 19.439-19.4v-10.901a7.836 7.836 0 0 0-7.836-7.837zm-67.305-197.22v-27.947c4.198 4.651 6.768 10.784 6.768 17.516 0 6.905-2.702 13.185-7.095 17.875.215-2.469.327-4.952.327-7.444zM130.899 266.21c0-6.73 2.568-12.865 6.768-17.516v27.947c0 2.492.112 4.975.327 7.444-4.394-4.691-7.095-10.971-7.095-17.875zm181.463 157.206c-.518.517-1.67.813-3.159.813-6.309 0-17.733-5.042-29.035-16.304-6.795-6.772-11.315-13.575-13.852-19.294l15.631 15.576a7.815 7.815 0 0 0 5.532 2.286 7.836 7.836 0 0 0 5.532-13.387l-14.541-14.491c.271-.049.541-.093.812-.145 5.338 2.638 11.448 6.875 17.534 12.941 11.294 11.256 16.35 22.623 16.35 28.897-.001 1.466-.293 2.599-.804 3.108zm9.368-37.849h-8.966a92.677 92.677 0 0 0-13.375-12.745 128.271 128.271 0 0 0 31.667-17.268c4.346 2.966 7.205 7.939 7.205 13.566-.001 9.07-7.417 16.447-16.531 16.447zm36.929-142.106h-2.67c-20.167 0-38.755-6.78-53.647-18.146a104.73 104.73 0 0 0 4.113-4.762h52.204v22.908zm-205.32-51.2h205.319v12.619H153.339v-12.619zm0 28.293h131.558c-15.712 14.219-36.549 22.907-59.399 22.907h-28.332c-15.454 0-30.517-3.983-43.825-11.557v-11.351h-.002zm0 56.087v-27.133a104.235 104.235 0 0 0 43.825 9.627h28.332c24.685 0 47.386-8.61 65.254-22.968 17.867 14.355 40.558 22.968 65.239 22.968h2.67v17.506c0 22.685-11.154 44.675-31.408 61.916-19.595 16.681-44.738 26.249-68.985 26.249h-4.534c-24.247 0-49.39-9.567-68.985-26.249-20.254-17.241-31.408-39.231-31.408-61.916zm61.843 114.769c6.087-6.067 12.195-10.303 17.533-12.941.271.051.541.096.813.145l-14.541 14.491a7.837 7.837 0 1 0 11.064 11.101l15.631-15.577c-2.536 5.719-7.057 12.523-13.852 19.294-11.302 11.264-22.725 16.306-29.035 16.306-1.489 0-2.64-.296-3.159-.812-.511-.509-.805-1.643-.805-3.11.002-6.273 5.057-17.642 16.351-28.897zm-24.914-5.843c-9.115 0-16.529-7.377-16.529-16.446 0-5.628 2.859-10.6 7.205-13.566a128.23 128.23 0 0 0 31.666 17.268 92.377 92.377 0 0 0-8.49 7.486 94.588 94.588 0 0 0-4.885 5.259h-8.966v-.001zm60.506 110.76a5.23 5.23 0 0 1 5.224-5.224 5.23 5.23 0 0 1 5.224 5.224h-10.448zm33.96 0h-7.837c0-11.523-9.375-20.898-20.898-20.898s-20.898 9.375-20.898 20.898H81.963c-2.076 0-3.766-1.672-3.766-3.726v-40.47c0-32.658 26.672-59.228 59.458-59.228h31.003c5.324 4.816 12.259 7.89 19.896 8.292-3.467 6.75-5.395 13.354-5.395 19.112 0 5.768 1.872 10.682 5.415 14.212 3.535 3.522 8.452 5.383 14.222 5.383 11.813 0 27.178-7.999 40.099-20.876 5.253-5.235 9.679-10.874 13.105-16.515 3.425 5.64 7.852 11.28 13.105 16.515 4.963 4.945 10.286 9.163 15.63 12.493v64.808h-.001z"/></svg>